<svg fill="none" height="383" viewBox="0 0 383 383" width="383" xmlns="http://www.w3.org/2000/svg" xmlns:xlink="http://www.w3.org/1999/xlink"><filter id="a" color-interpolation-filters="sRGB" filterUnits="userSpaceOnUse" height="429.782" width="429.782" x="-23.002" y="-7.42773"><feFlood flood-opacity="0" result="BackgroundImageFix"/><feColorMatrix in="SourceAlpha" type="matrix" values="0 0 0 0 0 0 0 0 0 0 0 0 0 0 0 0 0 0 127 0"/><feOffset dy="16"/><feGaussianBlur stdDeviation="12"/><feColorMatrix type="matrix" values="0 0 0 0 0 0 0 0 0 0 0 0 0 0 0 0 0 0 0.06 0"/><feBlend in2="BackgroundImageFix" mode="normal" result="effect1_dropShadow"/><feColorMatrix in="SourceAlpha" type="matrix" values="0 0 0 0 0 0 0 0 0 0 0 0 0 0 0 0 0 0 127 0"/><feOffset/><feGaussianBlur stdDeviation="4"/><feColorMatrix type="matrix" values="0 0 0 0 0 0 0 0 0 0 0 0 0 0 0 0 0 0 0.04 0"/><feBlend in2="effect1_dropShadow" mode="normal" result="effect2_dropShadow"/><feBlend in="SourceGraphic" in2="effect2_dropShadow" mode="normal" result="shape"/></filter><linearGradient id="b" gradientUnits="userSpaceOnUse" x1="191.889" x2="191.889" y1=".572266" y2="382.354"><stop offset="0" stop-color="#2e66f8"/><stop offset="1" stop-color="#124adb"/></linearGradient><clipPath id="c"><path d="m.998047.572266h381.782v381.782h-381.782z"/></clipPath><g clip-path="url(#c)"><g filter="url(#a)"><path d="m.998047.572266h381.781953v381.781734h-381.781953z" fill="url(#b)"/><path clip-rule="evenodd" d="m59.1074 191.572c0 73.394 59.4976 132.891 132.8906 132.891 73.394 0 132.891-59.497 132.891-132.891 0-73.393-59.497-132.8904-132.891-132.8904-73.393 0-132.8906 59.4974-132.8906 132.8904zm98.9296-42.82c-4.893 0-8.859 3.966-8.859 8.859v67.922c0 4.893 3.966 8.86 8.859 8.86h67.922c4.893 0 8.859-3.967 8.859-8.86v-67.922c0-4.893-3.966-8.859-8.859-8.859z" fill="#fff" fill-rule="evenodd"/></g></g></svg>