<svg fill="none" height="1000" viewBox="0 0 1000 1000" width="1000" xmlns="http://www.w3.org/2000/svg"><path d="m526.81 142.789-1.156 1.845 1.246.78 1.189-.863zm169.947-35.391-.449 2.13zm-395.398 25.096.826 2.014zm-110.411 114.737 1.98.904zm-23.845 72.48-1.856 1.137 2.831 4.62 1.152-5.295zm-3.657-5.969 1.856-1.137-1.137-1.856-1.856 1.137zm-140.946 262.209h2.1767zm96.029 186.033-1.424 1.647zm224.406 111.242.549-2.106zm264.437 16.467-.325-2.153zm215.13-99.291-.529-2.112-.587.147-.427.429zm41.619-13.111.797 2.026zm68.047-52.896 2.021.808zm-11.351-78.067-.735-2.049-2.767.992 1.756 2.357zm32.49-17.991-1.44-1.633zm14.574-21.43-2.076-.653zm-1.12-29.224-2.056.716zm-9.947-13.218-1.18 1.83zm-15.753-3.974-.055-2.176zm-1.093.043-2.17-.173-.197 2.479 2.483-.133zm-31.91-78.215-1.9-1.061-.791 1.415 1.129 1.163zm3.88-10.699-2.131-.444zm.892-6.422-.405-2.139-1.644.312-.122 1.669zm26.701-12.133-.98-1.944-.186.094-.165.128zm1.236-.632 1.002 1.932 1.933-1.002-1.002-1.932zm-.127-.245-1.369-1.692-1.381 1.117.818 1.577zm14.907-17.246 1.866 1.12zm6.182-23.252 2.172-.139zm-1.131-6.175-1.424-1.646-1.093.945.447 1.374zm6.403-7.174 1.788 1.243v-.001zm.112-.161 1.793 1.235.002-.004zm.076-.11 1.795 1.231.001-.002zm.091-.135-1.588-1.488-.118.125-.096.143zm1.861-2.023 1.616 1.458 1.458-1.617-1.616-1.458zm-.37-.334-1.875-1.105-.903 1.531 1.32 1.191zm-22.446-98.245-2.175-.084-.047 1.237 1.038.673zm-16.104-31.641 1.332-1.722zm-26.629-12.555-2.119-.498-.488 2.076 2.066.53zm.137-.582 2.119.498.498-2.119-2.119-.498zm-3.293-.728-1.443 1.63.433.383.567.118zm-73.568-42.8-.749-2.044-5.856 2.148 5.92 1.962zm.175-.064.749 2.044 2.044-.75-.749-2.043zm114.816 217.766-1.867-1.12zm-10.993 12.813.951 1.959.232-.113.2-.164zm14.689-22.638 2.149.349.836-5.15-4.248 3.029zm-119.34 34.156-.037-2.176zm-159.08-29.942.775-2.034-1.62-.617-.964 1.44zm-11.966 13.902 1.472 1.604zm-116.653 32.456-.035-2.176zm-209.928-69.372 1.517-1.562-1.306-1.267-1.479 1.06zm-.439.317-1.279-1.762v.001zm-.503.369-1.297-1.748zm-30.831 8.265-.68 2.067zm-14.888-20.141 2.169-.191zm2.853-10.677-1.907-1.048zm7.171-10.083-1.666-1.402zm25.346-24.359-1.39-1.676zm87.732-55.639-.95-1.959zm186.895-35.76-.163 2.17 7.075.533-5.559-4.409zm-279.202 1.08-1.941.987.987 1.94 1.94-.986zm-7.235-14.229-.987-1.94-1.94.987.986 1.94zm269.234-15.697-.933 1.966 5.03 2.385-2.078-5.164zm-18.554-30.676-1.696 1.365zm-33.544-31.719 1.232-1.794zm-.033-.022-1.25 1.782.009.006.009.006zm-.033-.023 1.25-1.782zm-215.141-11.847-.826-2.014zm-101.948 106.6 1.98.905zm-29.878 121.437-.091 2.174 2.175.091.091-2.174zm-15.948-.668-2.175-.091-.091 2.175 2.175.091zm5.001-42.629 2.141.391.942-5.152-4.316 2.967zm-126.1802 243.948h2.1767zm90.5052 173.957 1.423-1.647zm217.995 107.872-.549 2.106zm258.032 16.128.324 2.152zm186.563-76.895 1.386 1.678 6.415-5.299-8.188 1.479zm-101.21 10.393-.086-2.176zm-327.566-60.197.894-1.984zm-91.211-59.372-1.517 1.561zm-37.192-73.459-2.175-.107zm16.232-30.116 1.247 1.784zm32.342-10.533.231 2.165zm67.062 4.518-.373 2.144zm339.956 28.542-.016-2.176zm213.51-33.664.871 1.995.082-.035.078-.043zm20.045-9.045.712 2.057 1.258-.436.185-1.319zm-26.145-69.823 1.573-1.504-1.362-1.424-1.552 1.214zm-45.15 16.348-.231-2.165zm-68.591-4.44-2.141-.394-.394 2.14 2.141.394zm2.889-15.7.394-2.14-2.141-.394-.394 2.14zm64.009 4.267-.231-2.164zm36.685-12.806 1.326 1.726.095-.073.087-.083zm4.799-4.606-1.508-1.571zm4.29-8.961 2.131.445v-.001zm.034-.164 2.133.433.684-3.367-3.337.82zm-12.26 2.75.434 2.133zm-57.469 5.963.052-2.176zm-73.045-7.296.391-2.142zm-9.619-1.892.45-2.129-6.641-1.404 4.586 5.004zm30.471 50.301.76 2.04 2.04-.76-.76-2.04zm-14.959 5.573-2.039.76.76 2.04 2.039-.76zm-84.852-80.384.427-2.135-2.177-.435-.393 2.185zm-4.649 8.674-1.626-1.446zm-8.804 7.534-1.247-1.784zm-28.304 14.802-.831-2.012zm-90.931 21.167-.173-2.17zm-200.686-47.706-1.724-1.328-1.329 1.725 1.725 1.328zm9.739-12.648 1.328-1.725-1.725-1.328-1.328 1.725zm189.676 44.442-.173-2.17zm86.11-20.01-.83-2.012zm25.253-13.132 1.247 1.784zm6.019-5.056 1.627 1.446zm.954-1.268-1.91-1.042-.002.003zm.005 0 2.058.709.002-.005zm-.136.711-2.17-.173-.174 2.17 2.17.173zm15.082 1.207-.174 2.17 1.965.157.351-1.94zm2.638-14.592.387-2.142-2.142-.387-.387 2.142zm35.505 14.306-1.12 1.867 1.958 1.174 1.08-2.011zm.227-.423 1.03-1.918-1.918-1.029-1.029 1.917zm44.13 12.691-.391 2.141zm70.552 7.041-.051 2.176zm53.908-5.647.434 2.133zm15.179-3.506.548 2.107 1.824-.474-.208-1.873zm-.192-1.734v-2.176h-2.432l.268 2.417zm6.543 0v2.177h.306l.294-.084zm-33.002-202.229-.15 2.171 7.989.549-6.611-4.518zm-198.882 35.569-1.812 1.207 1.002 1.504 1.663-.708zm91.682-68.79v-2.177zm-166.719 36.066-1.063-1.899-6.218 3.479 7.101.59zm17.092 1.719.253-2.162zm69.378 78.116-2.174-.112-.216 4.188 3.549-2.234zm-4.311-32.792-.849-2.005-1.888.799.685 1.933zm252.211-6.122-.553 2.106 3.493.917-.82-3.517zm-9.424-13.28 1.332-1.722zm-24.378-10.514-.401 2.14zm-2.228-.418-1.466 1.61.457.416.608.114zm-.802-.73 1.466-1.609-.465-.424-.619-.11zm-212.488 83.91-1.238-1.79-1.058.732.131 1.279zm-5.934 56.318-2.02-.812-.829 2.066 2.083.783zm259.503-97.542-.611 2.089 2.089.611.611-2.09zm.148-.508.936-1.965-2.308-1.1-.717 2.454zm.108.051.936-1.965zm20.31 79.122 1.572 1.506.158-.166.121-.194zm-8.309 7.926.921 1.972.278-.129.231-.202zm-.648.281-.808-2.021-1.669.667.34 1.765zm.047.24 1.42 1.65.956-.823-.239-1.239zm-119.841 38.644-.037-2.177zm-483.752-46.123-1.183-1.827-2.379 1.54 2.101 1.901zm36.73-22.531-1.096-1.881zm159.337 85.07.035 2.176zm106.117-28.257 1.472 1.604zm20.355-70.589 2.166-.217-.023-.231-.072-.221zm-.795-2.46-2.071.668zm-45.336-36.682.386-2.142zm-159.119 13.072-.742-2.047zm233.987-203.581-.448 2.13zm113.583 80.535-.473 2.124 4.648 1.035-2.259-4.192zm-266.512-50.876-1.207-1.811-2.459 1.639 2.294 1.862zm28.065 28.189-1.696 1.365zm26.083 51.841-2.135.424.175.886.752.501zm.192.128-1.208 1.811 1.082.722 1.149-.611zm167.35-34.186v2.177zm-583.521 457.903-2.021.809.808 2.021 2.021-.809zm14.358-94.471 1.606-1.47-1.47-1.606-1.606 1.47zm.463 88.543.808 2.021 2.021-.809-.808-2.021zm10.312-76.766 1.469 1.606 1.606-1.469-1.469-1.606zm738.908 42.505 1.44 1.633zm-37.712 18.235.474 2.124.056-.012.055-.016zm47.617-32.481-2.077-.654v.001zm-.969-19.191 2.055-.715zm-3.521-5.046 1.179-1.829zm-6.696-1.433-.055-2.176zm-30.697 10.882-1.034-1.916zm-.282.152.877 1.992.08-.035.077-.042zm-.292.128.877 1.993zm-220.103 35.142.017 2.176zm-342.814-28.779-.373 2.145zm-62.635-4.371-.231-2.164zm-24.888 7.743-1.247-1.784zm-9.435 17.817-2.174-.107zm32.373 61.227 1.517-1.561zm86.647 56.268-.895 1.984zm320.376 58.798.086 2.175zm168.554-29.016-.798-2.026zm59.075-43.973 2.021.809zm-13.168-67.362 1.644-1.426-.835-.962-1.247.256zm-36.742 6.326-.324-2.153-1.853.279v1.874zm0 21.982 2.135.427.042-.212v-.215zm-.155.775-2.134-.427zm-9.665 20.48-1.636-1.437zm-29.447 17.945.729 2.051zm-527.734-74.634-2.033-.777-.632 1.652 1.488.957zm5.58-14.595.345-2.149-1.747-.281-.631 1.653zm383.541 29.662.13 2.173zm.952 15.934-.13-2.172zm43.463-2.964 2.034.776 1.225-3.21-3.426.264zm-263.847-5.728.213-2.166-1.222 4.095zm10.761 5.34.929-1.968zm55.247 21.62.676-2.069zm116.1 22.379-.019-2.177zm-303.649-63.765.3-2.156-1.226 4.126zm86.436 10.766 1.418-1.651-.51-.439-.669-.074zm92.159 44.471-.382 2.143 1.073-4.207zm-53.11-21.036-.929 1.968zm276.996-15.423-.183-2.17-1.581.134-.357 1.546zm-40.282 47.859-1.008-1.929 1.083 4.104zm140.691-58.773h2.177v-2.497l-2.474.34zm0 18.08 2.129.456.048-.225v-.231zm-5.852 12.329-1.636-1.436zm-22.795 13.436-.728-2.051zm-212.086-435.318.254-2.162zm-198.752 32.269-.949-1.959zm248.948-1.643 1.981-.903zm5.192 24.363-1.65 1.42 3.979 4.627-.153-6.101zm-44.698-25.423.386-2.142zm-167.392 13.775-.742-2.046zm-83.154 41.061-1.096-1.881zm-52.75 33.316 1.297 1.748zm-16.33 5.922.681-2.068zm-3.935-5.981-2.079-.647-.138.443.055.46zm.902-1.989-1.908-1.048zm5.392-7.49-1.665-1.401zm23.323-22.35-1.389-1.676zm219.896 169.928-.425-2.135zm-126.913-.622.407-2.138zm-48.751-14.776-1.918-1.03-1.029 1.918 1.918 1.03zm7.551-14.064 1.03-1.918-1.918-1.029-1.03 1.917zm44.18 13.158-.406 2.139zm120.816.648.425 2.135zm53.21-16.762 1.932-1.002-1.002-1.932-1.932 1.002zm7.348 14.171 1.002 1.933 1.932-1.002-1.002-1.933zm-76.735-361.212c27.977-20.308 93.342-50.7864 168.219-35.023l.897-4.26c-76.446-16.0937-143.049 14.981-171.674 35.76zm-225.904-10.043c100.583-41.2507 187.408-12.467 223.469 10.126l2.312-3.689c-37.024-23.196-125.322-52.3422-227.432-10.465zm-109.257 113.627c21.314-46.66 55.747-91.682 109.257-113.627l-1.651-4.028c-54.898 22.514-89.987 68.606-111.565 115.847zm-23.698 72.038c4.945-22.732 12.581-47.699 23.698-72.038l-3.959-1.808c-11.268 24.666-18.993 49.937-23.993 72.921zm-7.64-5.294 3.657 5.969 3.712-2.275-3.657-5.968zm-136.9133 261.072c.0002-134.595 89.3443-229.371 139.9063-260.353l-2.274-3.712c-51.479 31.543-141.9856 127.561-141.9857 264.065zm95.2753 184.387c-58.1384-50.257-95.2753-113.001-95.2753-184.387h-4.3534c-.0001 73.024 38.0111 136.878 96.7817 187.68zm223.532 110.782c-85.928-22.41-165.41-60.541-223.532-110.782l-2.847 3.293c58.742 50.777 138.872 89.166 225.281 111.701zm263.563 16.42c-84.852 12.778-177.609 5.997-263.563-16.42l-1.098 4.212c86.451 22.547 179.805 29.389 265.31 16.513zm213.912-98.674c-54.351 54.59-130.509 86.115-213.912 98.674l.649 4.305c84.024-12.652 161.151-44.468 216.348-99.907zm42.364-13.6c-11.994 4.723-25.733 9.119-41.35 13.024l1.057 4.224c15.778-3.946 29.698-8.397 41.888-13.197zm66.824-51.68c-7.158 17.895-28.686 36.661-66.824 51.68l1.595 4.051c38.529-15.173 61.444-34.545 69.271-54.114zm-11.076-75.958c20.172 27.082 18.869 56.475 11.076 75.958l4.042 1.617c8.26-20.65 9.594-51.686-11.627-80.175zm32.796-20.924c-9.005 7.942-20.716 13.605-31.785 17.575l1.469 4.098c11.324-4.061 23.608-9.953 33.196-18.408zm13.938-20.45c-2.586 8.221-7.722 14.969-13.938 20.45l2.88 3.265c6.642-5.857 12.327-13.242 15.21-22.409zm-1.1-27.855c3.569 10.26 3.706 19.567 1.1 27.855l4.152 1.306c2.921-9.284 2.699-19.555-1.14-30.592zm-9.071-12.104c4.293 2.768 7.275 6.938 9.071 12.104l4.112-1.431c-2.055-5.907-5.571-10.945-10.824-14.332zm-14.517-3.628c5.272-.135 10.271.89 14.517 3.628l2.359-3.659c-5.17-3.333-11.096-4.472-16.987-4.321zm-1.033.04c.347-.018.691-.032 1.033-.04l-.111-4.352c-.383.009-.768.025-1.154.045zm-33.588-78.871c13.283 13.682 34.273 39.129 31.302 76.525l4.34.345c3.125-39.341-19.011-65.989-32.518-79.903zm3.311-12.66c-.669 3.206-1.791 6.754-3.649 10.082l3.8 2.123c2.13-3.813 3.378-7.806 4.111-11.316zm.852-6.136c-.142 1.951-.412 4.03-.852 6.136l4.261.889c.484-2.314.778-4.585.933-6.708zm27.541-13.697c-8.88 6.864-18.366 10.312-25.775 11.716l.81 4.278c7.983-1.514 18.129-5.207 27.627-12.55zm1.565-.842c-.401.208-.806.414-1.214.62l1.959 3.888c.423-.213.843-.428 1.259-.644zm-1.057 2.689.127.245 3.865-2.004-.127-.245zm14.972-19.368c-4.189 6.982-9.177 12.44-14.409 16.674l2.738 3.384c5.609-4.538 10.94-10.379 15.404-17.818zm5.876-21.994c.406 6.37-1.28 14.335-5.876 21.994l3.733 2.24c5.022-8.37 6.953-17.206 6.488-24.511zm-1.028-5.64c.582 1.791.906 3.717 1.028 5.64l4.345-.277c-.141-2.212-.517-4.507-1.233-6.709zm6.686-9.089c-1.982 2.851-4.063 5.06-6.04 6.77l2.848 3.292c2.239-1.937 4.568-4.415 6.767-7.577zm.106-.153c-.035.051-.071.102-.107.154l3.576 2.483c.039-.056.078-.112.117-.168zm.073-.108-.075.111 3.59 2.462.076-.11zm.085-.123c-.028.041-.057.083-.086.125l3.593 2.459c.032-.047.065-.095.097-.143zm2.046-2.261c-.605.671-1.216 1.336-1.832 1.993l3.176 2.977c.635-.677 1.265-1.362 1.889-2.054zm-.211 2.741.37.333 2.916-3.233-.37-.333zm7.51-37.829c0 16.212-3.387 27.408-7.927 35.107l3.75 2.211c5.012-8.5 8.531-20.497 8.531-37.318zm-29.682-60.207c14.012 9.083 29.682 29.604 29.682 60.207h4.354c0-32.171-16.497-54.026-31.667-63.86zm-16.251-31.745c8.731 6.753 15.765 16.665 15.26 29.835l4.351.167c.575-15.026-7.516-26.151-16.948-33.446zm-25.839-12.169c7.919 2.033 17.771 5.93 25.839 12.169l2.663-3.444c-8.674-6.707-19.123-10.811-27.42-12.941zm-1.441-3.188-.137.582 4.238.996.137-.582zm-1.617 1.901c1.13.235 2.21.474 3.238.716l.996-4.238c-1.066-.251-2.183-.498-3.348-.74zm-73.81-42.865c22.705 7.526 48.018 20.418 72.81 42.364l2.886-3.26c-25.274-22.372-51.117-35.543-74.326-43.236zm.111-4.174-.175.064 1.499 4.088.174-.064zm-129.986-97.391c79.468 16.73 118.807 73.227 128.691 100.184l4.088-1.498c-10.314-28.128-50.713-85.858-131.882-102.946zm243.684 316.081c-3.078 5.13-6.72 9.138-10.508 12.252l2.765 3.363c4.152-3.413 8.129-7.796 11.476-13.375zm3.415-9.054c-.428 2.634-1.457 5.79-3.415 9.054l3.733 2.24c2.248-3.746 3.465-7.427 3.979-10.596zm-117.155 36.681c43.842-.743 86.726-10.436 120.567-34.559l-2.527-3.545c-32.881 23.439-74.798 33.017-118.114 33.752zm-159.892-30.084c47.235 18.001 105.042 31.014 159.892 30.084l-.074-4.352c-54.173.918-111.424-11.948-158.268-29.8zm-9.719 13.472c4.77-4.378 8.858-9.149 12.303-14.295l-3.618-2.422c-3.249 4.854-7.109 9.362-11.628 13.509zm-118.09 33.029c54.761-.881 94.083-10.997 118.09-33.029l-2.943-3.208c-22.787 20.912-60.727 31.007-115.217 31.884zm-211.479-69.987c26.409 25.634 102.13 71.746 211.479 69.987l-.07-4.353c-108.149 1.74-182.766-43.899-208.376-68.758zm2.357.516c.134-.098.277-.201.428-.309l-2.537-3.538c-.157.113-.307.221-.45.324zm-.486.356c.148-.11.31-.229.486-.356l-2.559-3.522c-.186.134-.359.262-.521.382zm-32.808 8.584c10.149 3.34 21.628-.289 32.808-8.584l-2.594-3.496c-10.672 7.918-20.65 10.644-28.853 7.945zm-16.376-22.017c.797 9.027 5.88 18.563 16.376 22.017l1.361-4.135c-8.392-2.762-12.71-10.443-13.4-18.264zm3.114-11.916c-1.614 2.938-3.526 7.251-3.114 11.916l4.337-.382c-.294-3.33 1.08-6.685 2.592-9.438zm7.412-10.437c-3.028 3.598-5.592 7.124-7.412 10.437l3.815 2.096c1.633-2.972 4.004-6.255 6.928-9.73zm25.622-24.633c-10.788 8.949-19.536 17.402-25.622 24.633l3.331 2.803c5.866-6.969 14.406-15.24 25.071-24.085zm88.172-55.922c-35.93 17.41-66.55 37.99-88.172 55.922l2.78 3.351c21.353-17.71 51.677-38.099 87.291-55.355zm188.008-35.972c-64.372-4.843-122.657 4.307-188.008 35.972l1.899 3.918c64.622-31.312 122.135-40.338 185.783-35.549zm-278.379 5.192c133.132-67.694 243.42-27.836 276.863-1.316l2.706-3.411c-34.781-27.581-146.898-67.617-281.542.846zm-10.162-15.183 7.235 14.229 3.881-1.973-7.235-14.229zm272.107-18.651c-54.01-25.601-155.265-43.202-271.153 15.724l1.973 3.881c114.579-58.261 214.411-40.748 267.315-15.672zm-21.182-27.344c7.421 9.222 13.931 19.443 18.23 30.123l4.039-1.625c-4.5-11.18-11.266-21.768-18.877-31.227zm-33.08-31.289c8.31 5.706 21.479 16.87 33.08 31.289l3.392-2.729c-11.884-14.771-25.372-26.219-34.008-32.149zm-.033-.023.033.023 2.464-3.589-.033-.023zm-.051-.035.033.023 2.5-3.564-.033-.023zm-213.065-11.615c99.634-40.861 184.24-8.607 213.065 11.615l2.5-3.564c-29.843-20.937-116.003-53.588-217.217-12.079zm-100.794 105.491c20.342-44.533 52.369-85.631 100.794-105.491l-1.652-4.028c-49.812 20.428-82.495 62.597-103.102 107.71zm-29.683 120.623c1.223-29.229 9.342-76.091 29.683-120.623l-3.96-1.809c-20.607 45.113-28.83 92.539-30.073 122.25zm-18.214 1.416 15.948.667.182-4.349-15.948-.667zm2.951-45.195c-2.957 16.177-4.531 30.865-5.035 42.929l4.349.182c.496-11.845 2.045-26.333 4.968-42.329zm-121.8625 244.339c.0001-121.438 77.0625-209.032 125.2365-242.154l-2.466-3.588c-48.976 33.674-127.1239 122.464-127.124 245.742zm89.7515 172.31c-55.8173-48.249-89.7516-106.928-89.7515-172.31h-4.3535c0 67.019 34.8071 126.807 91.258 175.604zm217.122 107.413c-84.17-21.952-161.274-59.137-217.122-107.413l-2.847 3.294c56.468 48.812 134.22 86.255 218.87 108.331zm257.157 16.082c-82.462 12.417-173.03 5.858-257.157-16.082l-1.099 4.212c84.625 22.071 175.79 28.69 258.905 16.174zm185.501-76.421c-49.432 40.834-114.175 65.68-185.501 76.421l.649 4.304c71.882-10.824 137.43-35.904 187.625-77.369zm-99.737 14.246c39.087-1.546 72.751-5.23 101.511-10.426l-.774-4.284c-28.533 5.154-61.993 8.821-100.909 10.359zm-328.547-60.387c62.723 28.274 170.577 66.632 328.547 60.387l-.172-4.351c-157.125 6.212-264.302-31.929-326.586-60.005zm-91.833-59.796c23.498 22.834 56.044 43.662 91.833 59.796l1.789-3.969c-35.455-15.983-67.54-36.553-90.588-58.949zm-37.85-75.127c-1.303 26.511 14.663 52.596 37.85 75.127l3.034-3.122c-22.872-22.224-37.747-47.159-36.535-71.791zm17.16-31.793c-9.984 6.98-16.458 17.53-17.16 31.793l4.349.214c.634-12.892 6.403-22.215 15.305-28.439zm33.359-10.913c-11.835 1.261-23.884 4.289-33.359 10.913l2.494 3.568c8.612-6.02 19.821-8.926 31.326-10.152zm67.665 4.537c-16.666-2.898-43.967-7.062-67.665-4.537l.461 4.329c23.026-2.454 49.784 1.597 66.458 4.497zm339.567 28.511c-140.265 1.081-306.478-22.757-339.567-28.511l-.746 4.289c33.212 5.776 199.713 29.659 340.346 28.575zm212.656-33.483c-24.083 10.51-101.272 32.624-212.656 33.483l.033 4.353c111.848-.863 189.639-23.056 214.364-33.846zm20.203-9.107c-6.468 2.238-13.304 5.391-20.363 9.185l2.061 3.834c6.925-3.721 13.541-6.765 19.726-8.905zm-27.006-66.261c12.908 13.494 30.096 35.676 25.562 68.016l4.311.604c4.82-34.379-13.558-57.863-26.727-71.629zm.232-3.219c-12.046 9.422-27.483 14.131-44.04 15.897l.462 4.329c17.03-1.816 33.35-6.699 46.26-16.797zm-44.04 15.897c-21.213 2.263-45.063-.202-67.966-4.416l-.788 4.281c23.075 4.246 47.398 6.791 69.216 4.464zm-66.219-1.882 2.889-15.699-4.282-.788-2.889 15.7zm.354-13.952c22.445 4.13 45.033 6.381 64.634 4.291l-.462-4.329c-18.996 2.026-41.11-.145-63.384-4.243zm64.634 4.291c15.152-1.617 28.044-5.766 37.78-13.245l-2.652-3.452c-8.883 6.823-20.909 10.802-35.59 12.368zm39.745-21.148-4.798 4.607 3.015 3.14 4.798-4.606zm3.667-7.835c-.763 3.656-2.089 6.32-3.667 7.835l3.015 3.141c2.456-2.357 4.056-5.978 4.914-10.086zm.031-.153c-.01.052-.021.103-.031.153l4.262.889c.012-.059.024-.117.036-.175zm-9.692 5.317c4.119-.839 8.248-1.762 12.345-2.769l-1.039-4.228c-4.038.992-8.11 1.904-12.174 2.731zm-57.954 6.006c16.369.385 37.377-1.816 57.954-6.006l-.868-4.266c-20.349 4.144-41.022 6.295-56.983 5.92zm-73.385-7.331c21.366 3.904 46.96 6.709 73.385 7.331l.103-4.352c-26.198-.617-51.564-3.399-72.706-7.262zm-9.678-1.903c3.134.662 6.365 1.298 9.678 1.903l.782-4.283c-3.275-.598-6.467-1.226-9.56-1.879zm32.961 47.411c-7.849-21.067-18.84-37.846-30.906-51.011l-3.21 2.941c11.705 12.771 22.392 29.072 30.036 49.59zm-16.239 8.373 14.959-5.573-1.52-4.08-14.958 5.573zm-86.039-80.29c19.002 3.804 62.948 24.543 83.24 79.01l4.079-1.52c-20.909-56.125-66.26-77.715-86.465-81.759zm-2.595 7.987c1.992-2.24 4.415-5.568 5.164-9.736l-4.285-.77c-.539 2.998-2.339 5.596-4.132 7.613zm-9.184 7.871c3.56-2.487 6.742-5.125 9.184-7.871l-3.253-2.893c-2.137 2.403-5.025 4.821-8.425 7.196zm-28.72 15.03c11.718-4.838 21.559-10.027 28.72-15.03l-2.494-3.568c-6.822 4.766-16.359 9.814-27.888 14.574zm-91.589 21.325c35.921-2.869 68.093-11.625 91.589-21.325l-1.662-4.024c-23.091 9.533-54.821 18.177-90.273 21.009zm-202.187-48.151c26.108 20.103 101.484 56.195 202.187 48.151l-.346-4.34c-99.587 7.956-173.9-27.792-199.185-47.261zm9.342-15.701-9.738 12.648 3.449 2.656 9.739-12.648zm191.228 43.6c-95.494 7.629-165.911-26.854-188.175-43.997l-2.656 3.45c23.088 17.777 94.567 52.604 191.177 44.887zm85.453-19.852c-21.612 8.923-51.718 17.158-85.453 19.852l.346 4.34c34.204-2.732 64.753-11.079 86.768-20.168zm24.837-12.905c-5.583 3.901-14.002 8.432-24.837 12.905l1.661 4.024c11.024-4.551 19.749-9.223 25.669-13.36zm5.639-4.718c-1.018 1.144-2.827 2.754-5.639 4.718l2.493 3.569c2.972-2.076 5.076-3.906 6.399-5.394zm.668-.86c-.003.006-.007.012-.018.031-.014.023-.042.067-.09.135-.095.136-.269.367-.56.694l3.253 2.893c.795-.895 1.117-1.448 1.24-1.675zm2.779-.977c-.549-.235-1.061-.194-1.398-.108-.318.082-.545.217-.662.295-.231.152-.377.314-.421.363-.109.123-.18.231-.193.252-.045.066-.076.123-.079.128-.009.016-.017.03-.019.033-.002.005-.005.011-.005.011l3.821 2.085c.01-.018-.001.002-.011.021-.002.002-.032.056-.076.122-.013.02-.083.128-.192.25-.044.049-.19.211-.42.363-.118.078-.345.213-.662.294-.337.087-.849.128-1.398-.107zm1.198 2.72c0-.002.002-.009.005-.015.002-.006.007-.023.014-.044.002-.007.024-.075.045-.163.006-.027.039-.164.052-.342.005-.075.02-.305-.039-.593-.039-.19-.256-1.126-1.275-1.563l-1.715 4.002c-1.019-.437-1.236-1.373-1.275-1.563-.059-.287-.044-.518-.039-.592.013-.178.046-.315.052-.341.02-.086.041-.152.043-.157.009-.027.017-.052.012-.037zm-.026.181c.007-.095.019-.153.024-.175.003-.01.004-.014.002-.01-.001.006-.004.013-.002.009l-4.116-1.418c-.061.175-.196.6-.248 1.247zm13.085-1.137-15.082-1.206-.347 4.339 15.082 1.207zm.323-12.809-2.638 14.592 4.284.774 2.638-14.592zm38.767 12.827c-13.945-8.369-27.011-12.914-36.238-14.582l-.774 4.284c8.65 1.564 21.224 5.9 34.772 14.031zm-2.81.413-.228.423 3.836 2.06.227-.423zm46.439 11.58c-20.642-3.772-35.95-8.419-43.492-12.468l-2.059 3.836c8.171 4.387 24.042 9.127 44.768 12.914zm70.211 7.006c-25.363-.597-49.895-3.294-70.211-7.006l-.783 4.282c20.542 3.754 45.301 6.474 70.892 7.076zm53.423-5.604c-19.511 3.973-38.954 5.944-53.423 5.604l-.102 4.352c14.876.35 34.654-1.67 54.393-5.69zm15.066-3.48c-4.925 1.28-9.974 2.444-15.066 3.48l.868 4.266c5.164-1.051 10.29-2.232 15.293-3.532zm-1.809.614.193 1.734 4.327-.481-.193-1.734zm8.707-2.417h-6.543v4.353h6.543zm27.485-10.303c-8.014 3.891-17.652 7.395-28.085 10.387l1.2 4.185c10.597-3.039 20.484-6.625 28.786-10.655zm-60.338-191.922c-46.528-3.195-120.594 1.979-199.883 35.738l1.705 4.006c78.559-33.448 151.921-38.556 197.879-35.401zm-107.349-28.873c21.392.001 62.989 3.472 105.972 32.842l2.456-3.595c-43.972-30.045-86.548-33.6-108.428-33.6zm-165.656 35.79c42.597-23.837 81.634-35.79 165.656-35.79v-4.353c-84.603 0-124.406 12.071-167.782 36.344zm16.282-2.343c-5.775-.678-11.494-1.255-17.165-1.726l-.36 4.339c5.619.466 11.289 1.038 17.018 1.71zm59.504 31.961c-10.906-16.379-29.878-28.485-59.504-31.961l-.507 4.323c28.61 3.358 46.32 14.931 56.387 30.051zm11.795 48.429c.553-10.722-.463-22.427-4.434-33.632l-4.103 1.455c3.734 10.536 4.721 21.645 4.189 31.953zm246.279-41.131c-108.8-28.582-199.032 7.348-249.612 39.177l2.318 3.684c49.935-31.423 138.921-66.83 246.188-38.65zm-11.308-9.453c4.558 3.525 7.565 7.461 8.635 12.053l4.24-.989c-1.373-5.89-5.171-10.61-10.212-14.508zm-23.448-10.096c6.69 1.254 16.339 4.598 23.448 10.096l2.663-3.444c-7.812-6.041-18.169-9.593-25.309-10.931zm-2.228-.418 2.228.418.802-4.279-2.228-.418zm-1.867-1.261.802.731 2.932-3.219-.802-.73zm-213.065 31.459c92.748-39.255 177.432-37.465 214.149-30.925l.764-4.286c-37.457-6.672-123.005-8.416-216.61 31.202zm-.122 51.063c2.156 21.079.508 39.612-5.789 55.285l4.04 1.623c6.641-16.53 8.282-35.825 6.079-57.351zm256.344-43.535c-114.645-33.511-208.692 9.202-255.417 41.524l2.476 3.58c46.08-31.875 138.766-73.942 251.72-40.925zm-2.551.971-.149.508 4.179 1.221.148-.508zm3.133-1.303-.108-.051-1.872 3.93.107.051zm27.893 52.444c0-29.635-16.92-47.214-27.893-52.444l-1.873 3.93c9.496 4.526 25.413 20.6 25.413 48.514zm-6.668 29.789c3.439-5.559 6.668-14.741 6.668-29.789h-4.353c0 14.418-3.089 22.766-6.017 27.498zm-8.73 8.421c2.924-2.548 5.743-5.234 8.451-8.061l-3.144-3.012c-2.617 2.732-5.341 5.328-8.168 7.791zm-1.269.661c.193-.078.451-.185.76-.33l-1.843-3.944c-.219.102-.398.177-.534.232zm1.375-2.193-.046-.24-4.275.823.046.241zm-121.941 41.232c46.585-.79 89.798-12.115 121.224-39.17l-2.841-3.3c-30.374 26.151-72.445 37.337-118.457 38.117zm-152.121-28.353c45.451 17.092 100.438 29.229 152.121 28.353l-.074-4.353c-51.014.865-105.45-11.128-150.515-28.075zm-330.485-18.118c9.343-6.049 22.165-14.043 36.642-22.478l-2.191-3.762c-14.541 8.473-27.422 16.503-36.817 22.585zm194.849 58.534c-100.366 1.615-169.64-39.412-194.571-61.976l-2.922 3.228c25.692 23.251 96.017 64.735 197.563 63.101zm104.681-27.684c-18.312 16.805-51.186 26.824-104.681 27.684l.07 4.353c53.767-.865 88.022-10.904 107.554-28.829zm19.66-68.768c3.191 31.887-3.459 53.9-19.66 68.768l2.943 3.208c17.573-16.127 24.319-39.733 21.049-72.41zm-.7-2.009.794 2.461 4.143-1.338-.794-2.46zm-43.651-35.208c27.579 4.97 40.725 26.146 43.651 35.208l4.143-1.337c-3.281-10.16-17.461-32.829-47.022-38.155zm-157.991 12.976c63.869-23.161 118.912-20.017 157.991-12.976l.772-4.284c-39.589-7.133-95.453-10.329-160.247 13.167zm-80.206 39.681c25.551-14.888 55.57-30.747 80.206-39.681l-1.484-4.093c-25.015 9.072-55.306 25.091-80.913 40.012zm313.003-243.178c63.291 13.324 98.38 53.956 112.114 79.437l3.833-2.065c-14.209-26.36-50.253-67.991-115.05-81.632zm-151.274 29.341c27.422-18.275 85.561-43.176 151.274-29.341l.897-4.26c-67.218-14.152-126.547 11.292-154.585 29.978zm28.554 25.013c-9.395-11.677-19.7-21.458-28.389-28.514l-2.744 3.379c8.485 6.891 18.564 16.458 27.741 27.864zm26.522 52.782c-3.979-20.08-14.831-38.252-26.522-52.782l-3.392 2.729c11.449 14.229 21.851 31.763 25.644 50.9zm-.735-1.259-.192-.128-2.416 3.621.192.128zm166.142-34.553c-82.269 0-124.818 11.256-168.373 34.442l2.046 3.843c42.77-22.768 84.573-33.931 166.327-33.931zm45.294 4.956c-18.513-4.12-34.31-4.956-45.294-4.956v4.354c10.76 0 26.225.818 44.349 4.851zm-626.794 454.316c-18.418-46.045.878-80.23 13.806-92.057l-2.939-3.212c-14.095 12.895-34.082 48.954-14.909 96.886zm11.991-7.141-14.821 5.928 1.617 4.042 14.821-5.928zm9.651-76.351c-9.809 8.975-27.272 38.159-10.863 79.18l4.042-1.617c-15.657-39.141 1.123-66.449 9.76-74.351zm-10.911-8.702 10.775 11.778 3.212-2.939-10.775-11.778zm749.849 51.181c-9.498 8.375-23.873 14.143-36.858 17.77l1.171 4.193c13.179-3.681 28.322-9.664 38.567-18.698zm9.268-13.267c-1.495 4.753-4.617 9.165-9.268 13.267l2.88 3.265c5.078-4.478 8.749-9.528 10.541-15.226zm-.948-17.822c2.578 7.413 2.407 13.185.948 17.821l4.153 1.307c1.772-5.632 1.859-12.368-.99-20.559zm-2.645-3.932c.782.504 1.799 1.499 2.645 3.932l4.111-1.431c-1.107-3.182-2.661-5.041-4.397-6.16zm-5.46-1.087c2.994-.076 4.596.53 5.46 1.087l2.359-3.659c-1.783-1.15-4.311-1.872-7.93-1.78zm-29.72 10.622c13.453-7.258 23.312-10.458 29.72-10.622l-.111-4.352c-7.472.191-18.082 3.808-31.676 11.142zm-.281.151.281-.151-2.067-3.832-.281.152zm-.449.206.292-.129-1.754-3.985-.292.129zm-220.963 35.325c113.978-.879 194.171-23.532 220.963-35.325l-1.754-3.985c-26.142 11.507-105.726 34.081-219.242 34.957zm-343.204-28.81c33.665 5.855 201.218 29.905 343.204 28.81l-.033-4.353c-141.617 1.092-308.884-22.913-342.425-28.746zm-62.032-4.351c20.562-2.191 45.32 1.444 62.032 4.351l.746-4.289c-16.701-2.905-42.005-6.654-63.239-4.391zm-23.871 7.362c5.444-3.806 13.576-6.265 23.871-7.362l-.461-4.329c-10.625 1.132-19.596 3.713-25.904 8.123zm-8.508 16.14c.387-7.867 3.572-12.69 8.508-16.14l-2.494-3.568c-6.018 4.207-9.908 10.257-10.362 19.494zm31.716 59.559c-21.706-21.092-32.589-41.807-31.716-59.559l-4.348-.214c-.965 19.627 11.004 41.493 33.03 62.895zm86.024 55.844c-34.229-15.43-64.627-35.052-86.024-55.844l-3.034 3.122c21.847 21.23 52.706 41.111 87.269 56.691zm319.396 58.608c-154.029 6.09-258.72-31.256-319.396-58.608l-1.789 3.969c61.115 27.549 166.483 65.112 321.357 58.989zm167.842-28.867c-36.233 14.269-90.574 25.812-167.842 28.867l.172 4.35c77.581-3.067 132.44-14.664 169.265-29.166zm57.852-42.755c-4.703 11.758-21.152 28.303-57.852 42.755l1.595 4.051c37.094-14.608 54.927-31.758 60.299-45.189zm-12.791-65.127c20.321 23.413 19.247 48.988 12.791 65.127l4.042 1.617c6.96-17.4 8.012-44.761-13.545-69.597zm-34.774 7.051c16.087-2.419 28.465-4.621 36.856-6.345l-.876-4.265c-8.294 1.704-20.592 3.894-36.628 6.305zm1.853 19.83v-21.982h-4.354v21.982zm-.198 1.202.156-.775-4.269-.854-.155.775zm-10.163 21.489c6.515-7.42 8.886-15.102 10.164-21.489l-4.269-.854c-1.197 5.982-3.345 12.84-9.167 19.47zm-30.354 18.56c14.32-5.086 23.96-11.279 30.354-18.56l-3.272-2.873c-5.752 6.552-14.666 12.403-28.54 17.331zm-165.35 16.73c87.656 0 137.043-6.675 165.35-16.73l-1.458-4.102c-27.556 9.788-76.301 16.479-163.892 16.479zm-364.29-91.583c48.22 30.98 187.221 91.583 364.29 91.583v-4.353c-176.187 0-314.377-60.337-361.937-90.893zm4.724-17.204-5.58 14.595 4.066 1.555 5.58-14.596zm385.444 28.266c-115.459 6.893-303.286-16.825-383.066-29.638l-.69 4.298c79.794 12.816 268.036 36.61 384.016 29.686zm215.135-24.397c-23.226 5.187-99.117 17.471-215.135 24.397l.26 4.346c116.159-6.935 192.297-19.24 215.824-24.495zm-213.924 44.677c15.182-.906 29.691-1.904 43.501-2.967l-.334-4.34c-13.785 1.06-28.27 2.057-43.426 2.962zm-220.725-8.699c75.676 7.424 158.265 12.428 220.725 8.699l-.259-4.345c-62.106 3.707-144.416-1.267-220.041-8.686zm11.902 1.206c-3.771-1.781-7.338-3.552-10.681-5.301l-2.018 3.858c3.4 1.778 7.02 3.576 10.84 5.38zm54.994 21.519c-20.104-6.573-39.105-14.016-54.994-21.519l-1.859 3.937c16.081 7.594 35.255 15.101 55.501 21.72zm115.405 22.271c-31.188.276-74.96-9.05-115.405-22.271l-1.352 4.138c40.626 13.28 84.918 22.769 116.795 22.487zm79.725-42.21c-6.005 15.728-26.744 41.742-79.725 42.21l.038 4.354c54.695-.484 77.083-27.539 83.754-45.012zm-383.655-17.222c25.277 3.521 54.845 7.284 86.497 10.774l.478-4.328c-31.608-3.485-61.136-7.242-86.375-10.758zm179.277 50.938c-75.353-13.442-137.027-35.778-178.051-55.064l-1.852 3.94c41.346 19.438 103.385 41.896 179.139 55.41zm-54.421-16.925c15.702 7.415 34.05 14.67 53.348 21.132l1.382-4.128c-19.165-6.417-37.35-13.611-52.871-20.941zm-39.538-23.752c9.246 7.942 23.279 16.074 39.538 23.752l1.859-3.937c-16.14-7.622-29.757-15.556-38.561-23.117zm315.342 5.871c-3.226 13.963-14.707 33.637-39.169 46.42l2.016 3.858c25.613-13.383 37.889-34.124 41.394-49.299zm102.233-12.581c-26.232 3.612-59.932 7.504-100.295 10.901l.365 4.339c40.437-3.404 74.214-7.305 100.524-10.927zm2.474 20.237v-18.08h-4.353v18.08zm-6.393 13.766c3.759-4.281 5.352-8.685 6.345-13.31l-4.257-.913c-.897 4.182-2.252 7.811-5.36 11.35zm-23.702 14.05c12.683-4.505 19.659-9.446 23.702-14.05l-3.272-2.873c-3.402 3.875-9.652 8.475-21.887 12.821zm-112.698 15.052c57.854-1.999 92.178-7.763 112.698-15.052l-1.457-4.102c-19.879 7.061-53.663 12.809-111.391 14.803zm208.821-357.679c0 33.861-27.45 61.311-61.311 61.311v4.354c36.266 0 65.665-29.399 65.665-65.665zm-61.311-61.312c33.861 0 61.311 27.45 61.311 61.312h4.354c0-36.266-29.399-65.665-65.665-65.665zm-61.312 61.312c0-33.862 27.45-61.312 61.312-61.312v-4.353c-36.266 0-65.665 29.399-65.665 65.665zm61.312 61.311c-33.862 0-61.312-27.45-61.312-61.311h-4.353c0 36.266 29.399 65.665 65.665 65.665zm-298.939 20.317c36.266 0 65.665-29.4 65.665-65.665h-4.354c0 33.861-27.45 61.311-61.311 61.311zm-65.665-65.665c0 36.265 29.399 65.665 65.665 65.665v-4.354c-33.861 0-61.312-27.45-61.312-61.311zm65.665-65.665c-36.266 0-65.665 29.399-65.665 65.665h4.353c0-33.862 27.451-61.312 61.312-61.312zm65.665 65.665c0-36.266-29.399-65.665-65.665-65.665v4.353c33.861 0 61.311 27.45 61.311 61.312zm-14.099-112.867c-70.142-8.231-130.685-1.092-199.955 32.472l1.898 3.918c68.438-33.161 128.131-40.213 197.55-32.067zm51.923 31.885c-6.856-15.034-21.605-28.328-51.923-31.885l-.507 4.323c29.039 3.408 42.337 15.92 48.469 29.368zm5.387 25.212c-.213-8.526-1.76-17.256-5.387-25.212l-3.961 1.806c3.326 7.296 4.793 15.419 4.996 23.515zm-47.26-23.226c20.11 3.623 34.242 14.012 43.434 24.7l3.301-2.839c-9.727-11.309-24.706-22.316-45.963-26.146zm-166.264 13.679c67.261-24.392 125.314-21.058 166.264-13.679l.772-4.285c-41.461-7.47-100.334-10.856-168.52 13.871zm-82.8 40.894c25.757-15.007 56.776-31.457 82.8-40.894l-1.484-4.093c-26.402 9.574-57.695 26.185-83.508 41.226zm-52.549 33.184c5.87-4.355 26.786-18.172 52.549-33.184l-2.192-3.761c-25.824 15.047-46.895 28.956-52.951 33.449zm-18.307 6.241c3.032.998 9.012.655 18.307-6.241l-2.594-3.496c-8.757 6.497-13.243 5.967-14.352 5.602zm-5.417-7.792c.509 4.299 2.713 6.903 5.417 7.792l1.361-4.135c-.776-.255-2.102-1.188-2.455-4.169zm1.156-3.293c-.703 1.279-.966 2.046-1.073 2.39l4.157 1.295c.024-.078.175-.576.732-1.59zm5.635-7.843c-2.648 3.146-4.503 5.781-5.635 7.843l3.816 2.095c.944-1.72 2.605-4.112 5.15-7.135zm23.599-22.625c-10.332 8.569-18.321 16.352-23.599 22.625l3.33 2.803c5.059-6.011 12.841-13.611 23.048-22.077zm84.942-53.844c-34.768 16.846-64.304 36.727-84.942 53.844l2.779 3.351c20.37-16.895 49.611-36.585 84.061-53.277zm82.724 233.855c13.375 0 33.567-2.195 54.044-6.272l-.85-4.27c-20.291 4.04-40.187 6.189-53.194 6.189zm-73.7-6.89c21.417 4.07 47.116 6.89 73.7 6.89v-4.353c-26.291 0-51.718-2.791-72.887-6.814zm-49.374-14.997c10.39 5.578 28.224 10.978 49.374 14.997l.813-4.277c-21.017-3.994-38.329-9.295-48.128-14.556zm6.662-17.012-7.551 14.064 3.836 2.06 7.551-14.064zm46.505 12.05c-20.531-3.902-35.929-8.842-43.557-12.938l-2.059 3.836c8.22 4.413 24.141 9.452 44.803 13.379zm69.907 6.533c-25.218 0-49.645-2.682-69.907-6.533l-.813 4.277c20.51 3.898 45.209 6.609 70.72 6.609zm50.077-5.881c-19.611 3.904-38.419 5.881-50.077 5.881v4.353c12.026 0 31.13-2.023 50.927-5.965zm52.633-16.56c-13.441 6.969-32.941 12.639-52.633 16.56l.85 4.269c19.843-3.95 39.809-9.717 53.787-16.964zm10.282 15.101-7.348-14.171-3.864 2.004 7.348 14.171zm-58.948 21.384c20.396-4.061 42.073-10.182 58.018-18.449l-2.004-3.865c-15.409 7.989-36.619 14.013-56.864 18.044z" fill="#14f5da"/></svg>