<svg fill="none" height="1010" viewBox="0 0 1000 1010" width="1000" xmlns="http://www.w3.org/2000/svg"><rect height="155.395" rx="8.85668" stroke="#14f5da" stroke-width="8.05153" width="30.5958" x="108.191" y="66.9966"/><rect height="312.399" rx="8.85668" stroke="#14f5da" stroke-width="8.05153" width="30.5958" x="108.191" y="283.583"/><rect height="93.3977" rx="8.85668" stroke="#14f5da" stroke-width="8.05153" width="30.5958" x="138.788" y="35.5957"/><rect height="64.4122" rx="8.85668" stroke="#14f5da" stroke-width="8.05153" width="30.5958" x="232.185" y="531.57"/><rect height="125.604" rx="8.85668" stroke="#14f5da" stroke-width="8.05153" width="30.5958" x="447.966" y="127.383"/><rect height="125.604" rx="8.85668" stroke="#14f5da" stroke-width="8.05153" width="30.5958" x="323.973" y="127.383"/><rect height="125.604" rx="8.85668" stroke="#14f5da" stroke-width="8.05153" width="30.5958" x="263.586" y="127.383"/><rect height="125.604" rx="8.85668" stroke="#14f5da" stroke-width="8.05153" width="30.5958" x="138.788" y="127.383"/><rect height="30.5958" rx="8.85668" stroke="#14f5da" stroke-width="8.05153" width="30.5958" x="386.774" y="35.5957"/><rect height="30.5958" rx="8.85668" stroke="#14f5da" stroke-width="8.05153" width="30.5958" x="77.5957" y="314.179"/><rect fill="#14f5da" fill-opacity=".35" height="94.2029" rx="8.85668" transform="matrix(0 1 -1 0 421.565 -105.607)" width="95.0081" x="263.586" y="157.979"/><rect fill="#14f5da" fill-opacity=".35" height="94.2029" rx="8.85668" transform="matrix(0 1 -1 0 606.75 -290.792)" width="95.0081" x="448.771" y="157.979"/><g stroke="#14f5da" stroke-width="8.05153"><rect height="30.5958" rx="8.85668" width="30.5958" x="47" y="283.583"/><rect height="30.5958" rx="8.85668" width="30.5958" x="77.5957" y="283.583"/><rect height="30.5958" rx="8.85668" width="30.5958" x="386.774" y="470.378"/><rect height="30.5958" rx="8.85668" width="59.5813" x="294.987" y="314.179"/><rect height="30.5958" rx="8.85668" width="29.7907" x="294.182" y="157.979"/><rect height="30.5958" rx="8.85668" width="90.1771" x="264.391" y="409.187"/><rect height="61.1916" rx="8.85668" width="30.5958" x="417.37" y="66.1914"/><rect height="61.1916" rx="8.85668" width="30.5958" x="77.5957" y="222.391"/><rect height="186.795" rx="8.85668" width="30.5958" x="417.37" y="283.583"/><rect height="217.391" rx="8.85668" transform="matrix(0 1 -1 0 391.774 -381.774)" width="30.5958" x="386.774" y="5"/><rect height="154.589" rx="8.85668" transform="matrix(0 1 -1 0 887.748 114.2)" width="30.5958" x="386.774" y="500.974"/><rect height="93.3977" rx="8.85668" transform="matrix(0 1 -1 0 390.164 -135.398)" width="30.5958" x="262.781" y="127.383"/><rect height="94.2029" rx="8.85668" transform="matrix(0 1 -1 0 516.573 -10.599)" width="30.5958" x="263.586" y="252.987"/><rect height="94.2029" rx="8.85668" transform="matrix(0 1 -1 0 701.758 -195.784)" width="30.5958" x="448.771" y="252.987"/><rect height="93.3977" rx="8.85668" transform="matrix(0 1 -1 0 575.349 -320.583)" width="30.5958" x="447.966" y="127.383"/></g><rect fill="#fa297f" height="33.8164" rx="8.05153" width="33.8164" x="613.828" y="691.795"/><g stroke="#14f5da" stroke-width="8.05153"><rect height="93.3977" rx="8.05153" width="30.5958" x="646.034" y="538.816"/><rect height="93.3977" rx="8.05153" width="30.5958" x="800.623" y="911.602"/><rect height="93.3977" rx="8.05153" transform="matrix(0 1 -1 0 1773.417 49.787)" width="30.5958" x="861.815" y="911.602"/><rect height="93.3977" rx="8.05153" transform="matrix(0 1 -1 0 1680.825 -42.805)" width="30.5958" x="861.815" y="819.01"/><rect height="152.979" rx="8.05153" width="30.5958" x="770.027" y="385.837"/><rect height="152.979" rx="8.05153" width="30.5958" x="831.219" y="385.837"/><rect height="310.789" rx="8.05153" width="30.5958" x="923.007" y="538.816"/><rect height="61.1916" rx="8.05153" width="30.5958" x="615.438" y="632.214"/><rect height="152.174" rx="8.05153" width="30.5958" x="800.623" y="386.643"/><rect height="30.5958" rx="8.05153" width="30.5958" x="584.842" y="693.406"/><rect height="30.5958" rx="8.05153" width="30.5958" x="676.629" y="508.221"/><rect height="30.5958" rx="8.05153" width="30.5958" x="892.411" y="508.221"/><rect height="30.5958" rx="8.05153" width="30.5958" x="892.411" y="848.8"/><rect height="30.5958" rx="8.05153" width="30.5958" x="861.815" y="879.396"/><rect height="30.5958" rx="8.05153" width="30.5958" x="737.821" y="879.396"/><rect height="30.5958" rx="8.05153" width="30.5958" x="799.818" y="756.208"/><rect fill="#14f5da" fill-opacity=".35" height="30.5958" rx="8.05153" width="30.5958" x="707.226" y="662.81"/><rect fill="#14f5da" fill-opacity=".35" height="30.5958" rx="8.05153" width="30.5958" x="861.815" y="662.81"/><rect height="30.5958" opacity=".5" rx="8.05153" width="30.5958" x="707.226" y="632.214"/><rect height="30.5958" opacity=".5" rx="8.05153" width="30.5958" x="861.815" y="632.214"/><rect height="30.5958" opacity=".25" rx="8.05153" width="30.5958" x="737.821" y="662.81"/><rect height="30.5958" opacity=".25" rx="8.05153" width="30.5958" x="892.411" y="662.81"/><rect height="30.5958" opacity=".5" rx="8.05153" width="30.5958" x="737.821" y="632.214"/><rect height="30.5958" opacity=".5" rx="8.05153" width="30.5958" x="892.411" y="632.214"/><rect height="30.5958" rx="8.05153" width="30.5958" x="861.815" y="477.625"/><rect height="30.5958" rx="8.05153" width="62.8019" x="707.226" y="477.625"/><rect height="30.5958" rx="8.05153" width="30.5958" x="800.623" y="355.242"/><rect height="30.5958" rx="8.05153" width="30.5958" x="615.438" y="724.001"/><rect height="156.2" rx="8.05153" width="30.5958" x="646.034" y="693.406"/><rect height="156.2" rx="8.05153" width="30.5958" x="676.629" y="848.8"/></g></svg>