<svg fill="none" height="426" viewBox="0 0 426 426" width="426" xmlns="http://www.w3.org/2000/svg" xmlns:xlink="http://www.w3.org/1999/xlink"><linearGradient id="a" gradientUnits="userSpaceOnUse" x1="206.882" x2="206.882" y1="188.875" y2="265.625"><stop offset="0" stop-color="#14f5da" stop-opacity=".22"/><stop offset="1" stop-color="#14f5da" stop-opacity="0"/></linearGradient><path clip-rule="evenodd" d="m185.478 188.875h-110.2326v63.256h263.2726v-63.256h-109.32v3.039c0 12.073-9.787 21.86-21.86 21.86s-21.86-9.787-21.86-21.86z" fill="url(#a)" fill-rule="evenodd"/><path clip-rule="evenodd" d="m71.0007 268.72c0-11.879 9.6297-21.508 21.5085-21.508h229.8248c11.878 0 21.508 9.629 21.508 21.508v123.005c0 11.878-9.63 21.508-21.508 21.508h-229.8248c-11.8788 0-21.5085-9.63-21.5085-21.508zm21.5085-13.019c-7.1902 0-13.0191 5.829-13.0191 13.019v123.005c0 7.19 5.8289 13.019 13.0191 13.019h229.8248c7.19 0 13.019-5.829 13.019-13.019v-123.005c0-7.19-5.829-13.019-13.019-13.019z" fill-rule="evenodd" stroke="#14f5da" stroke-width="2.54682"/><path d="m197.454 305.614 1.52.558.423-1.155-.999-.717zm-7.836 21.371-1.519-.557-.798 2.176h2.317zm34.528 0v1.619h2.245l-.71-2.131zm-7.267-21.799-1-1.272-.895.704.36 1.08zm-24.563-12.728c0-8.045 6.521-14.567 14.566-14.567v-3.237c-9.833 0-17.803 7.971-17.803 17.804zm6.082 11.842c-3.687-2.647-6.082-6.965-6.082-11.842h-3.237c0 5.964 2.934 11.243 7.431 14.471zm-7.26 23.242 7.836-21.37-3.04-1.115-7.835 21.371zm33.008-2.175h-34.528v3.237h34.528zm-8.802-19.669 7.266 21.799 3.071-1.024-7.266-21.798zm6.104-13.24c0 4.648-2.175 8.787-5.569 11.456l2.001 2.544c4.141-3.257 6.805-8.318 6.805-14zm-14.566-14.567c8.045 0 14.566 6.522 14.566 14.567h3.237c0-9.833-7.971-17.804-17.803-17.804z" fill="#14f5da"/><g stroke="#14f5da"><path d="m109.773 293.537h32.37" stroke-width="2.15798"/><path d="m107.615 357.197h59.344" stroke-width="2.15798"/><path d="m79.7202 390.646h59.3438" stroke-width="2.15798"/><path d="m240.331 380.935h74.45" stroke-width="2.15798"/><path d="m214.435 380.935h14.027" stroke-width="2.15798"/><path d="m250.077 285.984h86.319" stroke-width="2.15798"/></g><path clip-rule="evenodd" d="m152.933 99.39c-45.25 0-81.9323 36.682-81.9323 81.932v10.718h114.0963c-.029-.462-.043-.929-.043-1.399v-7.09h-105.5639v-2.229c0-40.561 32.8809-73.443 73.4429-73.443h108.977c40.561 0 73.443 32.882 73.443 73.443v2.229h-105.73v7.09c0 .47-.015.937-.043 1.399h114.262v-10.718c0-45.25-36.682-81.932-81.932-81.932z" fill="#000" fill-rule="evenodd"/><path d="m71.0007 192.04h-1.2734v1.274h1.2734zm114.0963 0v1.274h1.355l-.084-1.352zm-.043-8.489h1.273v-1.273h-1.273zm-105.5639 0h-1.2734v1.273h1.2734zm255.8629 0v1.273h1.273v-1.273zm-105.73 0v-1.273h-1.274v1.273zm-.043 8.489-1.271-.078-.084 1.352h1.355zm114.262 0v1.274h1.274v-1.274zm-271.5679-10.718c0-44.547 36.1119-80.659 80.6589-80.659v-2.5464c-45.953 0-83.2057 37.2524-83.2057 83.2054zm0 10.718v-10.718h-2.5468v10.718zm112.8229-1.273h-114.0963v2.547h114.0963zm1.271 1.195c-.027-.437-.041-.877-.041-1.321h-2.547c0 .496.016.989.046 1.478zm-.041-1.321v-7.09h-2.547v7.09zm-106.8369-5.817h105.5639v-2.546h-105.5639zm-1.2734-3.502v2.229h2.5468v-2.229zm74.7163-74.716c-41.265 0-74.7163 33.451-74.7163 74.716h2.5468c0-39.858 32.3115-72.169 72.1695-72.169zm108.977 0h-108.977v2.547h108.977zm74.716 74.716c0-41.265-33.451-74.716-74.716-74.716v2.547c39.858 0 72.169 32.311 72.169 72.169zm0 2.229v-2.229h-2.547v2.229zm-107.003 1.273h105.73v-2.546h-105.73zm-1.274-1.273v7.09h2.547v-7.09zm0 7.09c0 .444-.013.884-.04 1.321l2.542.157c.03-.489.045-.982.045-1.478zm115.493.126h-114.262v2.547h114.262zm-1.273-9.445v10.718h2.547v-10.718zm-80.659-80.659c44.547 0 80.659 36.112 80.659 80.659h2.547c0-45.953-37.253-83.2054-83.206-83.2054zm-108.977 0h108.977v-2.5464h-108.977z" fill="#14f5da"/><path clip-rule="evenodd" d="m185.373 159.203c0-12.177 9.872-22.048 22.048-22.048 12.177 0 22.048 9.871 22.048 22.048v32.37c0 12.177-9.871 22.048-22.048 22.048-12.176 0-22.048-9.871-22.048-22.048zm22.048-13.558c-7.488 0-13.558 6.07-13.558 13.558v32.37c0 7.488 6.07 13.558 13.558 13.558 7.489 0 13.559-6.07 13.559-13.558v-32.37c0-7.488-6.07-13.558-13.559-13.558z" fill-rule="evenodd" stroke="#14f5da" stroke-width="2.54682"/><path d="m293.664 221.569c34.966 10.517 72.108-10.2 82.959-46.274 10.85-36.074-8.699-73.844-43.666-84.3609-34.966-10.5173-72.108 10.1999-82.958 46.2739-10.851 36.074 8.699 73.843 43.665 84.361z" fill="#14f5da"/><path d="m295.423 225.846c34.255 10.304 70.376-9.113 80.679-43.367s-9.113-70.375-43.367-80.678c-34.255-10.3035-70.376 9.113-80.679 43.367s9.113 70.375 43.367 80.678z" fill="#0a0a0a" stroke="#14f5da" stroke-linecap="round" stroke-linejoin="round" stroke-width="2.15798"/><path d="m299.646 211.809c26.501 7.972 54.447-7.05 62.418-33.552 7.972-26.501-7.05-54.447-33.552-62.418-26.501-7.972-54.447 7.05-62.418 33.552-7.972 26.501 7.05 54.447 33.552 62.418z" fill="#0a0a0a" stroke="#14f5da" stroke-linecap="round" stroke-linejoin="round" stroke-width="2.15798"/><rect height="20.799" rx="4.03246" stroke="#14f5da" stroke-width="2.12235" transform="matrix(.99215102 .12504544 -.12504544 .99215102 20.802251 -34.139321)" width="67.4906" x="282.345" y="148.635"/><path d="m109.315 259.22c30.368-7.048 49.092-38.159 41.822-69.489-7.271-31.33-37.783-51.015-68.1507-43.967-30.3681 7.047-49.0925 38.158-41.822 69.488 7.2704 31.33 37.7824 51.015 68.1507 43.968z" fill="#14f5da"/><path d="m112.434 261.642c29.749-6.903 48.27-36.617 41.366-66.366-6.904-29.75-36.617-48.271-66.3668-41.367-29.7497 6.904-48.2701 36.617-41.3664 66.367s36.6172 48.27 66.3672 41.366z" fill="#0a0a0a" stroke="#14f5da" stroke-linecap="round" stroke-linejoin="round" stroke-width="2.15798"/><path d="m109.604 249.451c23.017-5.341 37.346-28.33 32.004-51.346-5.341-23.017-28.329-37.346-51.3459-32.004-23.0166 5.341-37.3453 28.329-32.0041 51.346 5.3412 23.016 28.3297 37.345 51.346 32.004z" fill="#0a0a0a" stroke="#14f5da" stroke-linecap="round" stroke-linejoin="round" stroke-width="2.15798"/><rect height="17.4447" rx="4.03246" stroke="#14f5da" stroke-width="2.12235" transform="matrix(.97106513 -.23881481 .23881481 .97106513 -47.148365 22.677566)" width="57.3034" x="70.0108" y="205.909"/><path d="m248.553 73.9138c14.205 4.332 29.344-4.0364 33.813-18.6913s-3.423-30.0468-17.628-34.3788c-14.205-4.3319-29.344 4.0364-33.813 18.6913s3.423 30.0468 17.628 34.3788z" fill="#14f5da"/><path d="m249.262 75.6568c13.916 4.2437 28.637-3.5969 32.881-17.5127 4.243-13.9157-3.597-28.6369-17.513-32.8806-13.916-4.2438-28.637 3.5969-32.881 17.5126-4.243 13.9157 3.597 28.6369 17.513 32.8807z" fill="#0a0a0a" stroke="#14f5da" stroke-linecap="round" stroke-linejoin="round" stroke-width="2.15798"/><path d="m251.001 69.9534c10.766 3.2833 22.156-2.7828 25.439-13.549s-2.783-22.1556-13.549-25.4389c-10.766-3.2832-22.156 2.7829-25.439 13.5491s2.783 22.1556 13.549 25.4388z" fill="#0a0a0a" stroke="#14f5da" stroke-linecap="round" stroke-linejoin="round" stroke-width="2.15798"/><rect height="7.38163" rx="1.91011" stroke="#14f5da" stroke-width="2.12235" transform="matrix(.955364 .29543127 -.29543127 .955364 23.473363 -70.514798)" width="26.7416" x="245.094" y="42.4239"/></svg>